<?xml version="1.0" encoding="utf-8"?><svg xmlns="http://www.w3.org/2000/svg" xmlns:xlink="http://www.w3.org/1999/xlink"><symbol viewBox="0 0 24 24" id="bag"><path d="M10 2h4q1.242 0 2.121.879T17 5v1h3q1.242 0 2.121.879T23 9v10q0 1.242-.879 2.121T20 22H4q-1.242 0-2.121-.879T1 19V9q0-1.242.879-2.121T4 6h3V5q0-1.242.879-2.121T10 2zM5 20V8H4q-.414 0-.707.293T3 9v10q0 .414.293.707T4 20h1zm12 0V8H7v12h10zm3-12h-1v12h1q.414 0 .707-.293T21 19V9q0-.414-.293-.707T20 8zm-6-4h-4q-.414 0-.707.293T9 5v1h6V5q0-.414-.293-.707T14 4z"/></symbol><symbol viewBox="0 0 20 20" id="facebook-with-circle"><path d="M10 .4C4.698.4.4 4.698.4 10s4.298 9.6 9.6 9.6 9.6-4.298 9.6-9.6S15.302.4 10 .4zm2.274 6.634h-1.443c-.171 0-.361.225-.361.524V8.6h1.805l-.273 1.486H10.47v4.461H8.767v-4.461H7.222V8.6h1.545v-.874c0-1.254.87-2.273 2.064-2.273h1.443v1.581z"/></symbol><symbol viewBox="0 0 32 32" id="file"><path d="M28.681 7.159c-.694-.947-1.662-2.053-2.724-3.116s-2.169-2.03-3.116-2.724C21.229.137 20.448 0 20 0H4.5A2.503 2.503 0 0 0 2 2.5v27C2 30.878 3.122 32 4.5 32h23c1.378 0 2.5-1.122 2.5-2.5V10c0-.448-.137-1.23-1.319-2.841zm-4.138-1.702A27.334 27.334 0 0 1 26.811 8H22V3.189a27.334 27.334 0 0 1 2.543 2.268zM28 29.5c0 .271-.229.5-.5.5h-23a.507.507 0 0 1-.5-.5v-27c0-.271.229-.5.5-.5H20v7a1 1 0 0 0 1 1h7v19.5z"/><path d="M23 26H9a1 1 0 0 1 0-2h14a1 1 0 0 1 0 2zm0-4H9a1 1 0 0 1 0-2h14a1 1 0 0 1 0 2zm0-4H9a1 1 0 0 1 0-2h14a1 1 0 0 1 0 2z"/></symbol><symbol viewBox="0 0 20 20" id="github-with-circle"><path d="M10.015 9.949h-.03c-1.191 0-2.24-.303-2.861.268a1.57 1.57 0 0 0-.527 1.197c0 1.852 1.483 2.08 3.389 2.08h.029c1.905 0 3.389-.229 3.389-2.08 0-.443-.156-.856-.527-1.197-.622-.571-1.671-.268-2.862-.268zM8.393 12.48c-.363 0-.656-.408-.656-.91s.293-.908.656-.908c.363 0 .657.406.657.908s-.293.91-.657.91zm3.213 0c-.363 0-.657-.408-.657-.91s.294-.908.657-.908c.362 0 .656.406.656.908s-.293.91-.656.91zM10 .4C4.698.4.4 4.698.4 10s4.298 9.6 9.6 9.6 9.6-4.298 9.6-9.6S15.302.4 10 .4zm.876 13.539c-.172 0-.514 0-.876.002-.362-.002-.704-.002-.876-.002-.76 0-3.772-.059-3.772-3.689 0-.834.286-1.445.755-1.955-.074-.184-.078-1.232.32-2.236 0 0 .916.1 2.301 1.051.289-.081.781-.122 1.272-.122s.982.041 1.273.121c1.385-.951 2.301-1.051 2.301-1.051.398 1.004.395 2.053.32 2.236.469.51.755 1.121.755 1.955-.001 3.632-3.013 3.69-3.773 3.69z"/></symbol><symbol viewBox="0 0 32 32" id="lock"><path d="M15 21.915a1.5 1.5 0 1 1 1 0v2.594a.501.501 0 0 1-1 0v-2.594zm-1 .585v1.998a1.5 1.5 0 0 0 3 0V22.5a2.5 2.5 0 1 0-3 0zM8 14v-3.501A7.499 7.499 0 0 1 15.5 3c4.134 0 7.5 3.358 7.5 7.499V14c1.659.005 3 1.35 3 3.009v9.981a3.002 3.002 0 0 1-3.009 3.009H8.009A3.008 3.008 0 0 1 5 26.99v-9.981A3.001 3.001 0 0 1 8 14zm1 0h1v-3.491A5.5 5.5 0 0 1 15.5 5c3.031 0 5.5 2.466 5.5 5.509V14h1v-3.507C22 6.907 19.083 4 15.5 4 11.91 4 9 6.908 9 10.493V14zm2 0h9v-3.499A4.504 4.504 0 0 0 15.5 6a4.497 4.497 0 0 0-4.5 4.501V14zm-3.003 1A2 2 0 0 0 6 17.006v9.988A2 2 0 0 0 7.997 29h15.005a2 2 0 0 0 1.997-2.006v-9.988A2 2 0 0 0 23.002 15H7.997z"/></symbol><symbol viewBox="0 0 32 32" id="lock-open"><path d="M24 9.5v3c0 .826-.672 1.5-1.5 1.5-.834 0-1.5-.672-1.5-1.5v-4a4.503 4.503 0 0 0-4.5-4.499c-2.485 0-4.5 2.01-4.5 4.499v7.001c0 .169.009.335.027.499H24c1.659.005 3 1.35 3 3.009v9.981a3.002 3.002 0 0 1-3.009 3.009H9.009A3.008 3.008 0 0 1 6 28.99v-9.981A3.001 3.001 0 0 1 9 16V8.499A7.499 7.499 0 0 1 16.5 1C20.634 1 24 4.358 24 8.499V9.5zm-1-1.007C23 4.907 20.083 2 16.5 2 12.91 2 10 4.908 10 8.493v7.013c0 .166.006.331.019.493H11V8.508a5.5 5.5 0 0 1 5.5-5.509c3.031 0 5.5 2.466 5.5 5.509v3.993c0 .275.232.498.5.498.276 0 .5-.215.5-.49V8.493zm-7 15.422a1.5 1.5 0 1 1 1 0v2.594a.501.501 0 0 1-1 0v-2.594zm-1 .585v1.998a1.5 1.5 0 0 0 3 0V24.5a2.5 2.5 0 1 0-3 0zM8.997 17A2 2 0 0 0 7 19.006v9.988A2 2 0 0 0 8.997 31h15.005a2 2 0 0 0 1.997-2.006v-9.988A2 2 0 0 0 24.002 17H8.997z"/></symbol><symbol viewBox="0 0 24 24" id="mail_outline"><path d="M12 11.016L20.016 6H3.985zM20.016 18V8.016L12 12.985 3.984 8.016V18h16.031zm0-14.016c1.078 0 1.969.938 1.969 2.016v12c0 1.078-.891 2.016-1.969 2.016H3.985c-1.078 0-1.969-.938-1.969-2.016V6c0-1.078.891-2.016 1.969-2.016h16.031z"/></symbol><symbol viewBox="0 0 24 24" id="phone-outline"><path d="M19.502 3.672l-1.795-1.793C17.141 1.312 16.387 1 15.586 1s-1.555.312-2.121.879l-1.586 1.586a3.002 3.002 0 0 0 0 4.242l1.379 1.379-4.172 4.172-1.379-1.379C7.141 11.312 6.387 11 5.586 11s-1.555.312-2.121.879l-1.586 1.586a3.002 3.002 0 0 0 0 4.242L3.673 19.5c.465.465 1.796 1.545 4.116 1.545 2.764 0 5.694-1.529 8.711-4.545 6.245-6.246 4.825-11.002 3.002-12.828zm-6.209 1.207l1.586-1.586a.997.997 0 0 1 1.414 0l1.083 1.082-3.001 3-1.082-1.082a.999.999 0 0 1 0-1.414zm-10 11.414a.999.999 0 0 1 0-1.414l1.586-1.586a.997.997 0 0 1 1.414 0l1.082 1.082-2.999 3-1.083-1.082zm11.793-1.207c-3.083 3.082-5.551 3.959-7.297 3.959-1.349 0-2.267-.523-2.702-.959-.004-.004 2.995-3.004 2.995-3.004l.297.297a.997.997 0 0 0 1.414 0l5.586-5.586a.999.999 0 0 0 0-1.414l-.297-.297 3.001-3c1.003 1.004 2.467 4.539-2.997 10.004z"/></symbol><symbol viewBox="0 0 24 28" id="skype"><path d="M18.328 16.609c0-2.719-2.641-3.656-4.859-4.156l-1.625-.375c-1.188-.281-2.078-.484-2.078-1.391 0-.828.875-1.203 2.25-1.203 2.453 0 2.5 1.797 4.016 1.797 1.016 0 1.625-.797 1.625-1.703 0-1.797-2.984-2.969-5.938-2.969-2.703 0-5.844 1.172-5.844 4.344 0 2.625 1.75 3.563 4.031 4.109l2.281.562c1.391.344 2.25.5 2.25 1.5 0 .797-.891 1.406-2.266 1.406-2.891 0-3.047-2.406-4.719-2.406-1.094 0-1.578.781-1.578 1.641 0 1.922 2.938 3.484 6.453 3.484 2.938 0 6-1.469 6-4.641zM24 20c0 3.313-2.688 6-6 6a5.976 5.976 0 0 1-3.656-1.25c-.75.156-1.547.25-2.344.25-6.078 0-11-4.922-11-11 0-.797.094-1.594.25-2.344A5.978 5.978 0 0 1 0 8c0-3.313 2.688-6 6-6 1.375 0 2.641.469 3.656 1.25C10.406 3.094 11.203 3 12 3c6.078 0 11 4.922 11 11 0 .797-.094 1.594-.25 2.344A5.978 5.978 0 0 1 24 20z"/></symbol><symbol viewBox="0 0 32 32" id="study"><path d="M32 8a2.987 2.987 0 0 0-2.326-2.924L16.661 2.073a3.016 3.016 0 0 0-1.336.003l-12.999 3C.956 5.392 0 6.594 0 8s.957 2.608 2.325 2.924L5 11.541V20c0 2.654 3.038 5 11 5s11-2.346 11-5v-8.459l2.674-.617A2.987 2.987 0 0 0 32 8zm-7 12c0 1.105-3 3-9 3s-9-1.895-9-3v-7.997l8.338 1.924a3.025 3.025 0 0 0 1.336-.003L25 12.003V20zm-8.775-8.025a1.077 1.077 0 0 1-.45 0l-13-3a1 1 0 0 1 0-1.95l13-3a1.063 1.063 0 0 1 .45 0l13 3a1.001 1.001 0 0 1 0 1.95l-13 3zM29 13a1 1 0 1 1 2 0v9a1 1 0 1 1-2 0v-9zm1 11c1.104 0 2 2.896 2 4a2 2 0 0 1-4 0c0-1.104.895-4 2-4z"/></symbol><symbol viewBox="0 0 20 20" id="twitter-with-circle"><path d="M10 .4C4.698.4.4 4.698.4 10s4.298 9.6 9.6 9.6 9.6-4.298 9.6-9.6S15.302.4 10 .4zm3.905 7.864c.004.082.005.164.005.244 0 2.5-1.901 5.381-5.379 5.381a5.335 5.335 0 0 1-2.898-.85c.147.018.298.025.451.025.886 0 1.701-.301 2.348-.809a1.895 1.895 0 0 1-1.766-1.312 1.9 1.9 0 0 0 .853-.033 1.892 1.892 0 0 1-1.517-1.854v-.023c.255.141.547.227.857.237a1.89 1.89 0 0 1-.585-2.526 5.376 5.376 0 0 0 3.897 1.977 1.891 1.891 0 0 1 3.222-1.725 3.797 3.797 0 0 0 1.2-.459 1.9 1.9 0 0 1-.831 1.047 3.799 3.799 0 0 0 1.086-.299 3.834 3.834 0 0 1-.943.979z"/></symbol><symbol viewBox="0 0 20 20" id="vk-with-circle"><path d="M10 .4C4.698.4.4 4.698.4 10s4.298 9.6 9.6 9.6 9.6-4.298 9.6-9.6S15.302.4 10 .4zm3.692 10.831s.849.838 1.058 1.227c.006.008.009.016.011.02.085.143.105.254.063.337-.07.138-.31.206-.392.212h-1.5c-.104 0-.322-.027-.586-.209-.203-.142-.403-.375-.598-.602-.291-.338-.543-.63-.797-.63a.305.305 0 0 0-.095.015c-.192.062-.438.336-.438 1.066 0 .228-.18.359-.307.359h-.687c-.234 0-1.453-.082-2.533-1.221-1.322-1.395-2.512-4.193-2.522-4.219-.075-.181.08-.278.249-.278h1.515c.202 0 .268.123.314.232.054.127.252.632.577 1.2.527.926.85 1.302 1.109 1.302a.3.3 0 0 0 .139-.036c.338-.188.275-1.393.26-1.643 0-.047-.001-.539-.174-.775-.124-.171-.335-.236-.463-.26a.55.55 0 0 1 .199-.169c.232-.116.65-.133 1.065-.133h.231c.45.006.566.035.729.076.33.079.337.292.308 1.021-.009.207-.018.441-.018.717 0 .06-.003.124-.003.192-.01.371-.022.792.24.965a.216.216 0 0 0 .114.033c.091 0 .365 0 1.107-1.273a9.718 9.718 0 0 0 .595-1.274c.015-.026.059-.106.111-.137a.266.266 0 0 1 .124-.029h1.781c.194 0 .327.029.352.104.044.119-.008.482-.821 1.583l-.363.479c-.737.966-.737 1.015.046 1.748z"/></symbol></svg>