<?xml version="1.0" encoding="utf-8"?><svg xmlns="http://www.w3.org/2000/svg" xmlns:xlink="http://www.w3.org/1999/xlink"><symbol viewBox="0 0 20 20" id="facebook-with-circle"><path d="M10 .4C4.698.4.4 4.698.4 10s4.298 9.6 9.6 9.6 9.6-4.298 9.6-9.6S15.302.4 10 .4zm2.274 6.634h-1.443c-.171 0-.361.225-.361.524V8.6h1.805l-.273 1.486H10.47v4.461H8.767v-4.461H7.222V8.6h1.545v-.874c0-1.254.87-2.273 2.064-2.273h1.443v1.581z"/></symbol><symbol viewBox="0 0 20 20" id="github-with-circle"><path d="M10.015 9.949h-.03c-1.191 0-2.24-.303-2.861.268a1.57 1.57 0 0 0-.527 1.197c0 1.852 1.483 2.08 3.389 2.08h.029c1.905 0 3.389-.229 3.389-2.08 0-.443-.156-.856-.527-1.197-.622-.571-1.671-.268-2.862-.268zM8.393 12.48c-.363 0-.656-.408-.656-.91s.293-.908.656-.908c.363 0 .657.406.657.908s-.293.91-.657.91zm3.213 0c-.363 0-.657-.408-.657-.91s.294-.908.657-.908c.362 0 .656.406.656.908s-.293.91-.656.91zM10 .4C4.698.4.4 4.698.4 10s4.298 9.6 9.6 9.6 9.6-4.298 9.6-9.6S15.302.4 10 .4zm.876 13.539c-.172 0-.514 0-.876.002-.362-.002-.704-.002-.876-.002-.76 0-3.772-.059-3.772-3.689 0-.834.286-1.445.755-1.955-.074-.184-.078-1.232.32-2.236 0 0 .916.1 2.301 1.051.289-.081.781-.122 1.272-.122s.982.041 1.273.121c1.385-.951 2.301-1.051 2.301-1.051.398 1.004.395 2.053.32 2.236.469.51.755 1.121.755 1.955-.001 3.632-3.013 3.69-3.773 3.69z"/></symbol><symbol viewBox="0 0 20 20" id="twitter-with-circle"><path d="M10 .4C4.698.4.4 4.698.4 10s4.298 9.6 9.6 9.6 9.6-4.298 9.6-9.6S15.302.4 10 .4zm3.905 7.864c.004.082.005.164.005.244 0 2.5-1.901 5.381-5.379 5.381a5.335 5.335 0 0 1-2.898-.85c.147.018.298.025.451.025.886 0 1.701-.301 2.348-.809a1.895 1.895 0 0 1-1.766-1.312 1.9 1.9 0 0 0 .853-.033 1.892 1.892 0 0 1-1.517-1.854v-.023c.255.141.547.227.857.237a1.89 1.89 0 0 1-.585-2.526 5.376 5.376 0 0 0 3.897 1.977 1.891 1.891 0 0 1 3.222-1.725 3.797 3.797 0 0 0 1.2-.459 1.9 1.9 0 0 1-.831 1.047 3.799 3.799 0 0 0 1.086-.299 3.834 3.834 0 0 1-.943.979z"/></symbol><symbol viewBox="0 0 20 20" id="vk-with-circle"><path d="M10 .4C4.698.4.4 4.698.4 10s4.298 9.6 9.6 9.6 9.6-4.298 9.6-9.6S15.302.4 10 .4zm3.692 10.831s.849.838 1.058 1.227c.006.008.009.016.011.02.085.143.105.254.063.337-.07.138-.31.206-.392.212h-1.5c-.104 0-.322-.027-.586-.209-.203-.142-.403-.375-.598-.602-.291-.338-.543-.63-.797-.63a.305.305 0 0 0-.095.015c-.192.062-.438.336-.438 1.066 0 .228-.18.359-.307.359h-.687c-.234 0-1.453-.082-2.533-1.221-1.322-1.395-2.512-4.193-2.522-4.219-.075-.181.08-.278.249-.278h1.515c.202 0 .268.123.314.232.054.127.252.632.577 1.2.527.926.85 1.302 1.109 1.302a.3.3 0 0 0 .139-.036c.338-.188.275-1.393.26-1.643 0-.047-.001-.539-.174-.775-.124-.171-.335-.236-.463-.26a.55.55 0 0 1 .199-.169c.232-.116.65-.133 1.065-.133h.231c.45.006.566.035.729.076.33.079.337.292.308 1.021-.009.207-.018.441-.018.717 0 .06-.003.124-.003.192-.01.371-.022.792.24.965a.216.216 0 0 0 .114.033c.091 0 .365 0 1.107-1.273a9.718 9.718 0 0 0 .595-1.274c.015-.026.059-.106.111-.137a.266.266 0 0 1 .124-.029h1.781c.194 0 .327.029.352.104.044.119-.008.482-.821 1.583l-.363.479c-.737.966-.737 1.015.046 1.748z"/></symbol></svg>