<svg id="svg3336" xmlns:rdf="http://www.w3.org/1999/02/22-rdf-syntax-ns#" xmlns="http://www.w3.org/2000/svg" height="42.5" viewBox="0 0 45 42.5" width="45" version="1.1" xmlns:cc="http://creativecommons.org/ns#" xmlns:dc="http://purl.org/dc/elements/1.1/">
 <path id="path3346" style="fill:#686868" d="m2.0243136 40.175544c-1.562409-1.562409-1.964285-4.963744-1.964285-16.625 0-9.73611 0.503857-15.16457 1.5-16.160713 0.825-0.825 3.879627-1.5 6.788061-1.5 4.5322304 0 5.3451544-0.4019953 5.6875004-2.8125 0.367447-2.5872372 1.050199-2.8125001 8.524439-2.8125001s8.156992 0.22526294 8.524439 2.8125001c0.342346 2.4105047 1.15527 2.8125 5.6875 2.8125 2.908434 0 5.963061 0.675 6.788061 1.5 0.996142 0.9961429 1.5 6.4246034 1.5 16.160713 0 11.661256-0.401876 15.062591-1.964286 16.625-2.896381 2.896381-38.175047 2.896381-41.071429 0zm39.035715-2.035714c0.849206-0.849206 1.5-4.916666 1.5-9.375v-7.875h-7.5c-6.6219 0-7.5 0.287551-7.5 2.45602 0 3.383954-4.249474 5.533609-7.5 3.79398-1.375-0.735878-2.5-2.443169-2.5-3.79398 0-2.168469-0.8781-2.45602-7.5-2.45602h-7.5000004v7.875c0 4.458334 0.650793 8.525794 1.5 9.375 2.086552 2.086553 34.913448 2.086553 37 0zm-16.220845-15.166082c0.293997-1.515921-0.484571-2.083918-2.85648-2.083918-2.905336 0-3.110413 0.280691-1.882024 2.575956 1.557654 2.910504 4.130426 2.643351 4.738504-0.492038zm17.483801-9.271418-0.387956-4.6874994h-19.375-19.375l-0.387957 4.6874994-0.387956 4.6875h20.150913 20.150914l-0.387958-4.6875zm-14.137956-9.6874994c0-1.4262406-7.433164-2.4079548-10.198223-1.3469016-1.009378 0.3873345-1.466703 1.3005373-1.016278 2.0293396 1.019683 1.6498832 11.214501 1.0294963 11.214501-0.682438z"/>
</svg>
