<?xml version="1.0" encoding="UTF-8" standalone="no"?>
<!-- Created with Inkscape (http://www.inkscape.org/) -->

<svg
   xmlns:dc="http://purl.org/dc/elements/1.1/"
   xmlns:cc="http://creativecommons.org/ns#"
   xmlns:rdf="http://www.w3.org/1999/02/22-rdf-syntax-ns#"
   xmlns:svg="http://www.w3.org/2000/svg"
   xmlns="http://www.w3.org/2000/svg"
   xmlns:sodipodi="http://sodipodi.sourceforge.net/DTD/sodipodi-0.dtd"
   xmlns:inkscape="http://www.inkscape.org/namespaces/inkscape"
   id="svg3336"
   version="1.1"
   inkscape:version="0.91 r13725"
   width="45"
   height="42.5"
   viewBox="0 0 45 42.5"
   sodipodi:docname="bag.svg">
  <metadata
     id="metadata3342">
    <rdf:RDF>
      <cc:Work
         rdf:about="">
        <dc:format>image/svg+xml</dc:format>
        <dc:type
           rdf:resource="http://purl.org/dc/dcmitype/StillImage" />
        <dc:title></dc:title>
      </cc:Work>
    </rdf:RDF>
  </metadata>
  <defs
     id="defs3340" />
  <sodipodi:namedview
     pagecolor="#ffffff"
     bordercolor="#666666"
     borderopacity="1"
     objecttolerance="10"
     gridtolerance="10"
     guidetolerance="10"
     inkscape:pageopacity="0"
     inkscape:pageshadow="2"
     inkscape:window-width="1600"
     inkscape:window-height="837"
     id="namedview3338"
     showgrid="false"
     inkscape:zoom="15.717647"
     inkscape:cx="22.5"
     inkscape:cy="21.25"
     inkscape:window-x="-8"
     inkscape:window-y="-8"
     inkscape:window-maximized="1"
     inkscape:current-layer="svg3336" />
  <g
     id="g3370"
     transform="translate(0.44535975,-0.25449102)">
    <path
       style="fill:#dbdbdb"
       d="m 41.650092,28.75 c 0,-4.46875 0.226869,-6.296875 0.504153,-4.0625 0.277283,2.234375 0.277283,5.890625 0,8.125 -0.277284,2.234375 -0.504153,0.40625 -0.504153,-4.0625 z M 2.7436859,14.375 c 0.025475,-2.0625 0.3056232,-2.754919 0.6225525,-1.53871 0.3169292,1.216209 0.2960863,2.903709 -0.046317,3.75 C 2.977517,17.43258 2.7182113,16.4375 2.7436859,14.375 Z m 38.7500001,0 c 0.02548,-2.0625 0.305623,-2.754919 0.622553,-1.53871 0.316928,1.216209 0.296086,2.903709 -0.04631,3.75 -0.342409,0.84629 -0.601715,-0.14879 -0.57624,-2.21129 z"
       id="path3382"
       inkscape:connector-curvature="0" />
    <path
       style="fill:#d6d6d6"
       d="m 14.0625,39.073062 c 4.640625,-0.240508 12.234375,-0.240508 16.875,0 4.640625,0.240508 0.84375,0.437287 -8.4375,0.437287 -9.28125,0 -13.078125,-0.196779 -8.4375,-0.437287 z m -1.25,-21.252197 c 5.328125,-0.234314 14.046875,-0.234314 19.375,0 5.328125,0.234314 0.96875,0.426025 -9.6875,0.426025 -10.65625,0 -15.015625,-0.191711 -9.6875,-0.426025 z m 7.5,-14.9325219 c 1.203125,-0.3144095 3.171875,-0.3144095 4.375,0 1.203125,0.3144094 0.21875,0.5716535 -2.1875,0.5716535 -2.40625,0 -3.390625,-0.2572441 -2.1875,-0.5716535 z"
       id="path3380"
       inkscape:connector-curvature="0" />
    <path
       style="fill:#b8b8b8"
       d="m 7.8125,5.3883431 c 1.203125,-0.3144095 3.171875,-0.3144095 4.375,0 1.203125,0.3144094 0.21875,0.5716535 -2.1875,0.5716535 -2.40625,0 -3.390625,-0.2572441 -2.1875,-0.5716535 z m 11.875,-0.02051 c 1.546875,-0.2979411 4.078125,-0.2979411 5.625,0 1.546875,0.2979411 0.28125,0.5417111 -2.8125,0.5417111 -3.09375,0 -4.359375,-0.24377 -2.8125,-0.5417111 z m 13.125,0.02051 c 1.203125,-0.3144095 3.171875,-0.3144095 4.375,0 1.203125,0.3144094 0.21875,0.5716535 -2.1875,0.5716535 -2.40625,0 -3.390625,-0.2572441 -2.1875,-0.5716535 z"
       id="path3378"
       inkscape:connector-curvature="0" />
    <path
       style="fill:#909090"
       d="m 7.8125,20.331201 c 3.265625,-0.257498 8.609375,-0.257498 11.875,0 3.265625,0.257498 0.59375,0.468179 -5.9375,0.468179 -6.53125,0 -9.203125,-0.210681 -5.9375,-0.468179 z"
       id="path3376"
       inkscape:connector-curvature="0" />
    <path
       style="fill:#868686"
       d="m 14.0625,7.8230621 c 4.640625,-0.2405077 12.234375,-0.2405077 16.875,0 4.640625,0.2405078 0.84375,0.4372869 -8.4375,0.4372869 -9.28125,0 -13.078125,-0.1967791 -8.4375,-0.4372869 z"
       id="path3374"
       inkscape:connector-curvature="0" />
    <path
       style="fill:#686868"
       d="M 4.6165169,41.669969 C 1.1893418,40.713024 0,35.98602 0,23.321759 0,8.8247388 1.4246145,6.25 9.44588,6.25 14.062031,6.25 15,5.85039 15,3.883736 15,1.2047254 17.326481,0 22.5,0 27.673519,0 30,1.2047254 30,3.883736 30,5.8530586 30.938761,6.25 35.596184,6.25 c 8.429519,0 9.745064,2.7538176 9.206357,19.271577 -0.279297,8.563817 -0.989742,13.671679 -2.048957,14.731334 -1.148228,1.148704 -6.620159,1.68419 -18.75,1.834883 C 14.582862,42.204831 5.8586826,42.016806 4.6165169,41.669969 Z M 42.5,30.625 l 0,-9.375 -7.354211,0 c -6.296754,0 -7.447978,0.358566 -8.006325,2.493691 -1.235925,4.726181 -7.985421,4.666564 -9.396005,-0.083 -0.302495,-1.018527 0.238061,-0.787507 1.258222,0.53773 2.331402,3.0286 6.509844,2.196395 7.022758,-1.398696 C 26.414275,20.067307 26.136305,20 14.461939,20 L 2.5,20 l 0,10 0,10 20,0 20,0 0,-9.375 z M 42.259373,13.4375 41.875,8.125 22.5,8.125 3.125,8.125 2.7406277,13.4375 2.3562554,18.75 22.5,18.75 l 20.143745,0 -0.384372,-5.3125 z M 28.75,4.375 C 28.75,2.9583334 27.222222,2.5 22.5,2.5 c -4.722223,0 -6.25,0.4583334 -6.25,1.875 0,1.4166666 1.527777,1.875 6.25,1.875 4.722222,0 6.25,-0.4583334 6.25,-1.875 z"
       id="path3372"
       inkscape:connector-curvature="0" />
  </g>
</svg>
