<?xml version="1.0" standalone="no"?>
<!DOCTYPE svg PUBLIC "-//W3C//DTD SVG 20010904//EN"
 "http://www.w3.org/TR/2001/REC-SVG-20010904/DTD/svg10.dtd">
<svg version="1.0" xmlns="http://www.w3.org/2000/svg"
 width="88.000000pt" height="88.000000pt" viewBox="0 0 88.000000 88.000000"
 preserveAspectRatio="xMidYMid meet">
<metadata>
Created by potrace 1.11, written by Peter Selinger 2001-2013
</metadata>
<g transform="translate(0.000000,88.000000) scale(0.100000,-0.100000)"
fill="#000000" stroke="none">
<path d="M60 540 c1 -137 -1 -253 -4 -258 -2 -4 -1 -14 4 -22 7 -11 73 -14
379 -14 l371 -1 1 30 c0 17 1 138 1 270 l0 240 -376 3 -377 2 1 -250z m665
-16 l1 -191 -290 1 -290 1 -1 175 c0 96 1 182 3 191 3 15 32 17 290 15 l287
-1 0 -191z"/>
<path d="M450 603 c-12 -27 -28 -64 -35 -84 -8 -20 -21 -51 -30 -68 -15 -30
-15 -32 7 -40 20 -7 25 -3 42 33 10 23 20 46 22 53 1 7 14 38 28 69 25 54 33
85 19 71 -3 -4 -12 -2 -18 3 -9 8 -18 -2 -35 -37z"/>
<path d="M273 570 l-42 -40 39 -40 c21 -22 45 -40 53 -40 26 0 26 27 1 51
l-24 23 26 27 c24 25 25 29 11 43 -9 9 -17 16 -19 16 -2 0 -22 -18 -45 -40z"/>
<path d="M543 603 c-20 -7 -15 -41 7 -55 25 -16 25 -19 -5 -52 -20 -22 -23
-30 -12 -41 10 -11 17 -10 42 9 17 13 36 34 44 48 13 22 12 26 -11 49 -38 38
-52 47 -65 42z"/>
<path d="M5 191 c-3 -2 -5 -26 -5 -52 l0 -48 434 -1 435 0 3 28 c2 15 1 39 0
53 l-4 26 -162 -1 c-152 0 -162 -1 -163 -19 -1 -11 -4 -21 -7 -24 -4 -4 -134
-7 -188 -4 -12 1 -18 9 -18 24 l0 23 -160 0 c-88 0 -163 -2 -165 -5z"/>
</g>
</svg>
